# xmcd CD database file
#
# Track frame offsets:
#	182
#	15955
#	35677
#	49525
#	63907
#	76560
#	89380
#	105137
#
# Disc length: 1595 seconds
#
# Revision: 3
# Processed by: cddbd v1.5.2PL0 Copyright (c) Steve Scherf et al.
# Submitted via: CDex 1.70beta2
#
DISCID=47063908
DTITLE=Kathy Mattea - Special Collection
DYEAR=1995
DGENRE=Country
TTITLE0=Walking Away A Winner
TTITLE1=Grand Canyon
TTITLE2=Whole Lotta Holes
TTITLE3=Lonely At The Bottom
TTITLE4=Time Passes By
TTITLE5=Lonesome Standard Time
TTITLE6=You I Love
TTITLE7=Mary, Did You Know?
EXTD=YEAR: 1995
EXTT0=
EXTT1=
EXTT2=
EXTT3=
EXTT4=
EXTT5=
EXTT6=
EXTT7=
PLAYORDER=
